<mxfile host="app.diagrams.net" agent="Mozilla/5.0 (Windows NT 10.0; Win64; x64) AppleWebKit/537.36 (KHTML, like Gecko) Chrome/136.0.0.0 Safari/537.36" version="27.1.1">
  <diagram name="Page-1" id="SBtDbWCThfnlslIozASg">
    <mxGraphModel dx="1426" dy="743" grid="1" gridSize="10" guides="1" tooltips="1" connect="1" arrows="1" fold="1" page="1" pageScale="1" pageWidth="827" pageHeight="1169" math="0" shadow="0">
      <root>
        <mxCell id="0" />
        <mxCell id="1" parent="0" />
        <mxCell id="bMtikVbpiOWkGDIeM4f5-1" value="Cliente" style="swimlane;horizontal=0;whiteSpace=wrap;html=1;startSize=23;" parent="1" vertex="1">
          <mxGeometry y="80" width="1050" height="240" as="geometry" />
        </mxCell>
        <mxCell id="bMtikVbpiOWkGDIeM4f5-2" value="" style="ellipse;whiteSpace=wrap;html=1;aspect=fixed;strokeColor=#000000;fillColor=#000000;" parent="bMtikVbpiOWkGDIeM4f5-1" vertex="1">
          <mxGeometry x="50" y="75" width="25" height="25" as="geometry" />
        </mxCell>
        <mxCell id="bMtikVbpiOWkGDIeM4f5-4" value="" style="rounded=0;html=1;jettySize=auto;orthogonalLoop=1;fontSize=11;endArrow=block;endFill=0;endSize=8;strokeWidth=1;shadow=0;labelBackgroundColor=none;edgeStyle=orthogonalEdgeStyle;exitX=1;exitY=0.5;exitDx=0;exitDy=0;entryX=0.25;entryY=1;entryDx=0;entryDy=0;" parent="bMtikVbpiOWkGDIeM4f5-1" source="bMtikVbpiOWkGDIeM4f5-2" target="bMtikVbpiOWkGDIeM4f5-56" edge="1">
          <mxGeometry x="0.3333" y="50" relative="1" as="geometry">
            <mxPoint as="offset" />
            <mxPoint x="130" y="70" as="sourcePoint" />
            <mxPoint x="150" y="80" as="targetPoint" />
          </mxGeometry>
        </mxCell>
        <mxCell id="bMtikVbpiOWkGDIeM4f5-5" value="&amp;nbsp;Acessar pagina home" style="rounded=1;whiteSpace=wrap;html=1;fontSize=12;glass=0;strokeWidth=1;shadow=0;" parent="bMtikVbpiOWkGDIeM4f5-1" vertex="1">
          <mxGeometry x="160" y="150" width="120" height="40" as="geometry" />
        </mxCell>
        <mxCell id="bMtikVbpiOWkGDIeM4f5-6" value="" style="rounded=0;html=1;jettySize=auto;orthogonalLoop=1;fontSize=11;endArrow=block;endFill=0;endSize=8;strokeWidth=1;shadow=0;labelBackgroundColor=none;edgeStyle=orthogonalEdgeStyle;exitX=0;exitY=0.5;exitDx=0;exitDy=0;entryX=0.422;entryY=-0.025;entryDx=0;entryDy=0;entryPerimeter=0;" parent="bMtikVbpiOWkGDIeM4f5-1" source="bMtikVbpiOWkGDIeM4f5-55" target="bMtikVbpiOWkGDIeM4f5-5" edge="1">
          <mxGeometry x="0.3333" y="50" relative="1" as="geometry">
            <mxPoint as="offset" />
            <mxPoint x="210" y="120" as="sourcePoint" />
            <mxPoint x="240" y="180" as="targetPoint" />
            <Array as="points">
              <mxPoint x="210" y="110" />
              <mxPoint x="210" y="125" />
              <mxPoint x="211" y="125" />
            </Array>
          </mxGeometry>
        </mxCell>
        <mxCell id="bMtikVbpiOWkGDIeM4f5-7" value="Cadastrar" style="rounded=1;whiteSpace=wrap;html=1;fontSize=12;glass=0;strokeWidth=1;shadow=0;" parent="bMtikVbpiOWkGDIeM4f5-1" vertex="1">
          <mxGeometry x="414" y="50" width="120" height="40" as="geometry" />
        </mxCell>
        <mxCell id="bMtikVbpiOWkGDIeM4f5-8" value="Não" style="edgeStyle=orthogonalEdgeStyle;rounded=0;html=1;jettySize=auto;orthogonalLoop=1;fontSize=11;endArrow=block;endFill=0;endSize=8;strokeWidth=1;shadow=0;labelBackgroundColor=none;exitX=1;exitY=0.5;exitDx=0;exitDy=0;" parent="bMtikVbpiOWkGDIeM4f5-1" source="bMtikVbpiOWkGDIeM4f5-55" target="bMtikVbpiOWkGDIeM4f5-7" edge="1">
          <mxGeometry x="0.1" y="15" relative="1" as="geometry">
            <mxPoint as="offset" />
            <mxPoint x="310" y="80" as="sourcePoint" />
            <Array as="points">
              <mxPoint x="370" y="110" />
              <mxPoint x="370" y="70" />
            </Array>
          </mxGeometry>
        </mxCell>
        <mxCell id="bMtikVbpiOWkGDIeM4f5-9" value="" style="edgeStyle=orthogonalEdgeStyle;rounded=0;html=1;jettySize=auto;orthogonalLoop=1;fontSize=11;endArrow=block;endFill=0;endSize=8;strokeWidth=1;shadow=0;labelBackgroundColor=none;exitX=0.136;exitY=0.012;exitDx=0;exitDy=0;exitPerimeter=0;" parent="bMtikVbpiOWkGDIeM4f5-1" source="bMtikVbpiOWkGDIeM4f5-7" target="bMtikVbpiOWkGDIeM4f5-56" edge="1">
          <mxGeometry y="-50" relative="1" as="geometry">
            <mxPoint x="-1" y="10" as="offset" />
            <mxPoint x="380" y="90" as="sourcePoint" />
            <mxPoint x="370" y="-20" as="targetPoint" />
            <Array as="points">
              <mxPoint x="430" y="10" />
              <mxPoint x="150" y="10" />
            </Array>
          </mxGeometry>
        </mxCell>
        <mxCell id="bMtikVbpiOWkGDIeM4f5-10" value="" style="rhombus;whiteSpace=wrap;html=1;shadow=0;fontFamily=Helvetica;fontSize=12;align=center;strokeWidth=1;spacing=6;spacingTop=-4;fillColor=#fff2cc;strokeColor=#d6b656;" parent="bMtikVbpiOWkGDIeM4f5-1" vertex="1">
          <mxGeometry x="350" y="190" width="40" height="30" as="geometry" />
        </mxCell>
        <mxCell id="bMtikVbpiOWkGDIeM4f5-11" value="" style="rounded=0;html=1;jettySize=auto;orthogonalLoop=1;fontSize=11;endArrow=block;endFill=0;endSize=8;strokeWidth=1;shadow=0;labelBackgroundColor=none;edgeStyle=orthogonalEdgeStyle;exitX=1;exitY=0.5;exitDx=0;exitDy=0;entryX=0;entryY=0.5;entryDx=0;entryDy=0;" parent="bMtikVbpiOWkGDIeM4f5-1" source="bMtikVbpiOWkGDIeM4f5-5" target="bMtikVbpiOWkGDIeM4f5-47" edge="1">
          <mxGeometry x="0.3333" y="50" relative="1" as="geometry">
            <mxPoint as="offset" />
            <mxPoint x="220" y="300" as="sourcePoint" />
            <mxPoint x="220" y="360" as="targetPoint" />
          </mxGeometry>
        </mxCell>
        <mxCell id="bMtikVbpiOWkGDIeM4f5-12" value="Não" style="edgeStyle=orthogonalEdgeStyle;rounded=0;html=1;jettySize=auto;orthogonalLoop=1;fontSize=11;endArrow=block;endFill=0;endSize=8;strokeWidth=1;shadow=0;labelBackgroundColor=none;entryX=0;entryY=0.5;entryDx=0;entryDy=0;exitX=1;exitY=0.5;exitDx=0;exitDy=0;" parent="bMtikVbpiOWkGDIeM4f5-1" source="bMtikVbpiOWkGDIeM4f5-10" target="bMtikVbpiOWkGDIeM4f5-13" edge="1">
          <mxGeometry y="10" relative="1" as="geometry">
            <mxPoint as="offset" />
            <mxPoint x="414" y="199.8" as="sourcePoint" />
            <mxPoint x="474" y="199.8" as="targetPoint" />
            <Array as="points">
              <mxPoint x="484" y="205" />
            </Array>
          </mxGeometry>
        </mxCell>
        <mxCell id="bMtikVbpiOWkGDIeM4f5-13" value="Pesquisar por anuncios" style="rounded=1;whiteSpace=wrap;html=1;fontSize=12;glass=0;strokeWidth=1;shadow=0;" parent="bMtikVbpiOWkGDIeM4f5-1" vertex="1">
          <mxGeometry x="484" y="185" width="120" height="40" as="geometry" />
        </mxCell>
        <mxCell id="bMtikVbpiOWkGDIeM4f5-15" value="Criar Chat" style="rounded=1;whiteSpace=wrap;html=1;fontSize=12;glass=0;strokeWidth=1;shadow=0;" parent="bMtikVbpiOWkGDIeM4f5-1" vertex="1">
          <mxGeometry x="740" y="180" width="120" height="40" as="geometry" />
        </mxCell>
        <mxCell id="bMtikVbpiOWkGDIeM4f5-16" value="Denunciar anuncio" style="rounded=1;whiteSpace=wrap;html=1;fontSize=12;glass=0;strokeWidth=1;shadow=0;" parent="bMtikVbpiOWkGDIeM4f5-1" vertex="1">
          <mxGeometry x="580" y="90" width="120" height="40" as="geometry" />
        </mxCell>
        <mxCell id="bMtikVbpiOWkGDIeM4f5-17" value="" style="edgeStyle=orthogonalEdgeStyle;rounded=0;html=1;jettySize=auto;orthogonalLoop=1;fontSize=11;endArrow=block;endFill=0;endSize=8;strokeWidth=1;shadow=0;labelBackgroundColor=none;entryX=0;entryY=0.5;entryDx=0;entryDy=0;exitX=0.467;exitY=0;exitDx=0;exitDy=0;exitPerimeter=0;" parent="bMtikVbpiOWkGDIeM4f5-1" source="bMtikVbpiOWkGDIeM4f5-13" target="bMtikVbpiOWkGDIeM4f5-16" edge="1">
          <mxGeometry x="0.2152" y="10" relative="1" as="geometry">
            <mxPoint as="offset" />
            <mxPoint x="537" y="150" as="sourcePoint" />
            <mxPoint x="604" y="150.2" as="targetPoint" />
          </mxGeometry>
        </mxCell>
        <mxCell id="bMtikVbpiOWkGDIeM4f5-18" value="Aceitar proposta" style="rounded=1;whiteSpace=wrap;html=1;fontSize=12;glass=0;strokeWidth=1;shadow=0;" parent="bMtikVbpiOWkGDIeM4f5-1" vertex="1">
          <mxGeometry x="790" y="85" width="120" height="40" as="geometry" />
        </mxCell>
        <mxCell id="bMtikVbpiOWkGDIeM4f5-19" value="" style="ellipse;whiteSpace=wrap;html=1;aspect=fixed;gradientColor=none;fillColor=none;shadow=0;" parent="bMtikVbpiOWkGDIeM4f5-1" vertex="1">
          <mxGeometry x="1000" y="110" width="20" height="20" as="geometry" />
        </mxCell>
        <mxCell id="bMtikVbpiOWkGDIeM4f5-47" value="Deseja se tornar um vendedor?" style="rounded=1;whiteSpace=wrap;html=1;" parent="bMtikVbpiOWkGDIeM4f5-1" vertex="1">
          <mxGeometry x="320" y="130" width="120" height="40" as="geometry" />
        </mxCell>
        <mxCell id="bMtikVbpiOWkGDIeM4f5-49" value="" style="rounded=0;html=1;jettySize=auto;orthogonalLoop=1;fontSize=11;endArrow=block;endFill=0;endSize=8;strokeWidth=1;shadow=0;labelBackgroundColor=none;edgeStyle=orthogonalEdgeStyle;exitX=0.5;exitY=1;exitDx=0;exitDy=0;" parent="bMtikVbpiOWkGDIeM4f5-1" source="bMtikVbpiOWkGDIeM4f5-47" target="bMtikVbpiOWkGDIeM4f5-10" edge="1">
          <mxGeometry x="0.3333" y="50" relative="1" as="geometry">
            <mxPoint as="offset" />
            <mxPoint x="320" y="210" as="sourcePoint" />
            <mxPoint x="370" y="190" as="targetPoint" />
            <Array as="points">
              <mxPoint x="370" y="170" />
            </Array>
          </mxGeometry>
        </mxCell>
        <mxCell id="bMtikVbpiOWkGDIeM4f5-55" value="" style="rhombus;whiteSpace=wrap;html=1;shadow=0;fontFamily=Helvetica;fontSize=12;align=center;strokeWidth=1;spacing=6;spacingTop=-4;fillColor=#fff2cc;strokeColor=#d6b656;" parent="bMtikVbpiOWkGDIeM4f5-1" vertex="1">
          <mxGeometry x="250" y="95" width="40" height="30" as="geometry" />
        </mxCell>
        <mxCell id="bMtikVbpiOWkGDIeM4f5-56" value="Realizar login" style="rounded=1;whiteSpace=wrap;html=1;" parent="bMtikVbpiOWkGDIeM4f5-1" vertex="1">
          <mxGeometry x="80" y="25" width="120" height="40" as="geometry" />
        </mxCell>
        <mxCell id="bMtikVbpiOWkGDIeM4f5-57" value="Usuario possui conta cadastrada?" style="rounded=1;whiteSpace=wrap;html=1;" parent="bMtikVbpiOWkGDIeM4f5-1" vertex="1">
          <mxGeometry x="220" y="25" width="120" height="40" as="geometry" />
        </mxCell>
        <mxCell id="bMtikVbpiOWkGDIeM4f5-59" value="" style="rounded=0;html=1;jettySize=auto;orthogonalLoop=1;fontSize=11;endArrow=block;endFill=0;endSize=8;strokeWidth=1;shadow=0;labelBackgroundColor=none;edgeStyle=orthogonalEdgeStyle;entryX=0.5;entryY=0;entryDx=0;entryDy=0;" parent="bMtikVbpiOWkGDIeM4f5-1" target="bMtikVbpiOWkGDIeM4f5-55" edge="1">
          <mxGeometry x="0.3333" y="50" relative="1" as="geometry">
            <mxPoint as="offset" />
            <mxPoint x="279.9988679245283" y="65" as="sourcePoint" />
            <mxPoint x="269.98" y="95" as="targetPoint" />
            <Array as="points" />
          </mxGeometry>
        </mxCell>
        <mxCell id="7xggXMTKVj6Pkvd-sYPO-9" value="" style="edgeStyle=orthogonalEdgeStyle;rounded=0;html=1;jettySize=auto;orthogonalLoop=1;fontSize=11;endArrow=block;endFill=0;endSize=8;strokeWidth=1;shadow=0;labelBackgroundColor=none;exitX=0.5;exitY=0;exitDx=0;exitDy=0;entryX=0;entryY=0.5;entryDx=0;entryDy=0;" parent="bMtikVbpiOWkGDIeM4f5-1" source="bMtikVbpiOWkGDIeM4f5-15" target="bMtikVbpiOWkGDIeM4f5-18" edge="1">
          <mxGeometry x="0.2152" y="10" relative="1" as="geometry">
            <mxPoint as="offset" />
            <mxPoint x="820" y="80" as="sourcePoint" />
            <mxPoint x="860" y="110" as="targetPoint" />
            <Array as="points">
              <mxPoint x="770" y="180" />
              <mxPoint x="770" y="105" />
            </Array>
          </mxGeometry>
        </mxCell>
        <mxCell id="7xggXMTKVj6Pkvd-sYPO-11" value="Realizar pagamento" style="rounded=1;whiteSpace=wrap;html=1;" parent="bMtikVbpiOWkGDIeM4f5-1" vertex="1">
          <mxGeometry x="890" y="42.5" width="120" height="32.5" as="geometry" />
        </mxCell>
        <mxCell id="bMtikVbpiOWkGDIeM4f5-20" value="" style="edgeStyle=orthogonalEdgeStyle;rounded=0;html=1;jettySize=auto;orthogonalLoop=1;fontSize=11;endArrow=block;endFill=0;endSize=8;strokeWidth=1;shadow=0;labelBackgroundColor=none;exitX=0.5;exitY=0;exitDx=0;exitDy=0;" parent="bMtikVbpiOWkGDIeM4f5-1" source="bMtikVbpiOWkGDIeM4f5-18" target="7xggXMTKVj6Pkvd-sYPO-11" edge="1">
          <mxGeometry x="0.2152" y="10" relative="1" as="geometry">
            <mxPoint as="offset" />
            <mxPoint x="840" y="80" as="sourcePoint" />
            <mxPoint x="940" y="25" as="targetPoint" />
            <Array as="points">
              <mxPoint x="850" y="25" />
            </Array>
          </mxGeometry>
        </mxCell>
        <mxCell id="7xggXMTKVj6Pkvd-sYPO-12" value="" style="edgeStyle=orthogonalEdgeStyle;rounded=0;html=1;jettySize=auto;orthogonalLoop=1;fontSize=11;endArrow=block;endFill=0;endSize=8;strokeWidth=1;shadow=0;labelBackgroundColor=none;exitX=0.5;exitY=1;exitDx=0;exitDy=0;" parent="bMtikVbpiOWkGDIeM4f5-1" source="7xggXMTKVj6Pkvd-sYPO-11" target="bMtikVbpiOWkGDIeM4f5-19" edge="1">
          <mxGeometry x="0.2152" y="10" relative="1" as="geometry">
            <mxPoint as="offset" />
            <mxPoint x="990" y="160" as="sourcePoint" />
            <mxPoint x="1090" y="118" as="targetPoint" />
            <Array as="points">
              <mxPoint x="950" y="118" />
            </Array>
          </mxGeometry>
        </mxCell>
        <mxCell id="7xggXMTKVj6Pkvd-sYPO-21" value="" style="edgeStyle=orthogonalEdgeStyle;rounded=0;html=1;jettySize=auto;orthogonalLoop=1;fontSize=11;endArrow=block;endFill=0;endSize=8;strokeWidth=1;shadow=0;labelBackgroundColor=none;exitX=0.999;exitY=0.394;exitDx=0;exitDy=0;exitPerimeter=0;entryX=0.084;entryY=0.007;entryDx=0;entryDy=0;entryPerimeter=0;" parent="bMtikVbpiOWkGDIeM4f5-1" source="bMtikVbpiOWkGDIeM4f5-13" target="bMtikVbpiOWkGDIeM4f5-15" edge="1">
          <mxGeometry x="0.2152" y="10" relative="1" as="geometry">
            <mxPoint as="offset" />
            <mxPoint x="620" y="200" as="sourcePoint" />
            <mxPoint x="740" y="120" as="targetPoint" />
            <Array as="points">
              <mxPoint x="670" y="201" />
              <mxPoint x="670" y="150" />
              <mxPoint x="750" y="150" />
            </Array>
          </mxGeometry>
        </mxCell>
        <mxCell id="_TeAZVNQX-OvgpN_DuKz-1" value="" style="ellipse;whiteSpace=wrap;html=1;aspect=fixed;fillColor=#000000;" vertex="1" parent="bMtikVbpiOWkGDIeM4f5-1">
          <mxGeometry x="1002" y="112" width="16" height="16" as="geometry" />
        </mxCell>
        <mxCell id="bMtikVbpiOWkGDIeM4f5-21" value="Curador" style="swimlane;horizontal=0;whiteSpace=wrap;html=1;" parent="1" vertex="1">
          <mxGeometry y="520" width="1050" height="200" as="geometry" />
        </mxCell>
        <mxCell id="bMtikVbpiOWkGDIeM4f5-22" value="Avaliar Denuncia" style="rounded=1;whiteSpace=wrap;html=1;fontSize=12;glass=0;strokeWidth=1;shadow=0;" parent="bMtikVbpiOWkGDIeM4f5-21" vertex="1">
          <mxGeometry x="680" y="120" width="120" height="40" as="geometry" />
        </mxCell>
        <mxCell id="bMtikVbpiOWkGDIeM4f5-24" value="" style="rounded=0;html=1;jettySize=auto;orthogonalLoop=1;fontSize=11;endArrow=block;endFill=0;endSize=8;strokeWidth=1;shadow=0;labelBackgroundColor=none;edgeStyle=orthogonalEdgeStyle;" parent="bMtikVbpiOWkGDIeM4f5-21" target="bMtikVbpiOWkGDIeM4f5-51" edge="1">
          <mxGeometry y="20" relative="1" as="geometry">
            <mxPoint as="offset" />
            <mxPoint x="710" y="120" as="sourcePoint" />
            <mxPoint x="680" y="90" as="targetPoint" />
            <Array as="points">
              <mxPoint x="710" y="110" />
              <mxPoint x="710" y="110" />
              <mxPoint x="710" y="80" />
              <mxPoint x="680" y="80" />
            </Array>
          </mxGeometry>
        </mxCell>
        <mxCell id="bMtikVbpiOWkGDIeM4f5-25" value="Deletar Anuncio do serviço" style="rounded=1;whiteSpace=wrap;html=1;fontSize=12;glass=0;strokeWidth=1;shadow=0;" parent="bMtikVbpiOWkGDIeM4f5-21" vertex="1">
          <mxGeometry x="340" y="135" width="120" height="40" as="geometry" />
        </mxCell>
        <mxCell id="bMtikVbpiOWkGDIeM4f5-26" value="" style="rounded=0;html=1;jettySize=auto;orthogonalLoop=1;fontSize=11;endArrow=block;endFill=0;endSize=8;strokeWidth=1;shadow=0;labelBackgroundColor=none;edgeStyle=orthogonalEdgeStyle;entryX=1;entryY=0.5;entryDx=0;entryDy=0;exitX=0.5;exitY=1;exitDx=0;exitDy=0;" parent="bMtikVbpiOWkGDIeM4f5-21" source="bMtikVbpiOWkGDIeM4f5-52" target="bMtikVbpiOWkGDIeM4f5-25" edge="1">
          <mxGeometry y="20" relative="1" as="geometry">
            <mxPoint as="offset" />
            <mxPoint x="521" y="155" as="sourcePoint" />
            <mxPoint x="420" y="185" as="targetPoint" />
            <Array as="points">
              <mxPoint x="630" y="155" />
            </Array>
          </mxGeometry>
        </mxCell>
        <mxCell id="bMtikVbpiOWkGDIeM4f5-27" value="Não" style="text;html=1;align=center;verticalAlign=middle;resizable=0;points=[];autosize=1;strokeColor=none;fillColor=none;" parent="bMtikVbpiOWkGDIeM4f5-21" vertex="1">
          <mxGeometry x="550" y="70" width="50" height="30" as="geometry" />
        </mxCell>
        <mxCell id="bMtikVbpiOWkGDIeM4f5-28" value="" style="rounded=0;html=1;jettySize=auto;orthogonalLoop=1;fontSize=11;endArrow=block;endFill=0;endSize=8;strokeWidth=1;shadow=0;labelBackgroundColor=none;edgeStyle=orthogonalEdgeStyle;exitX=0;exitY=0.5;exitDx=0;exitDy=0;" parent="bMtikVbpiOWkGDIeM4f5-21" source="bMtikVbpiOWkGDIeM4f5-52" target="bMtikVbpiOWkGDIeM4f5-29" edge="1">
          <mxGeometry y="20" relative="1" as="geometry">
            <mxPoint as="offset" />
            <mxPoint x="590" y="90" as="sourcePoint" />
            <mxPoint x="680" y="150" as="targetPoint" />
            <Array as="points">
              <mxPoint x="600" y="96" />
              <mxPoint x="540" y="95" />
            </Array>
          </mxGeometry>
        </mxCell>
        <mxCell id="bMtikVbpiOWkGDIeM4f5-29" value="Ignorar denuncia" style="rounded=1;whiteSpace=wrap;html=1;fontSize=12;glass=0;strokeWidth=1;shadow=0;" parent="bMtikVbpiOWkGDIeM4f5-21" vertex="1">
          <mxGeometry x="340" y="75.5" width="120" height="40" as="geometry" />
        </mxCell>
        <mxCell id="bMtikVbpiOWkGDIeM4f5-51" value="Serviço quebra as regras?" style="rounded=1;whiteSpace=wrap;html=1;" parent="bMtikVbpiOWkGDIeM4f5-21" vertex="1">
          <mxGeometry x="570" y="10" width="120" height="37.5" as="geometry" />
        </mxCell>
        <mxCell id="bMtikVbpiOWkGDIeM4f5-52" value="" style="rhombus;whiteSpace=wrap;html=1;shadow=0;fontFamily=Helvetica;fontSize=12;align=center;strokeWidth=1;spacing=6;spacingTop=-4;fillColor=#fff2cc;strokeColor=#d6b656;" parent="bMtikVbpiOWkGDIeM4f5-21" vertex="1">
          <mxGeometry x="610" y="80.5" width="40" height="30" as="geometry" />
        </mxCell>
        <mxCell id="bMtikVbpiOWkGDIeM4f5-31" value="Sim" style="text;html=1;align=center;verticalAlign=middle;resizable=0;points=[];autosize=1;strokeColor=none;fillColor=none;" parent="bMtikVbpiOWkGDIeM4f5-21" vertex="1">
          <mxGeometry x="560" y="130" width="40" height="30" as="geometry" />
        </mxCell>
        <mxCell id="bMtikVbpiOWkGDIeM4f5-53" value="" style="rounded=0;html=1;jettySize=auto;orthogonalLoop=1;fontSize=11;endArrow=block;endFill=0;endSize=8;strokeWidth=1;shadow=0;labelBackgroundColor=none;edgeStyle=orthogonalEdgeStyle;exitX=0.5;exitY=1;exitDx=0;exitDy=0;" parent="bMtikVbpiOWkGDIeM4f5-21" source="bMtikVbpiOWkGDIeM4f5-51" target="bMtikVbpiOWkGDIeM4f5-52" edge="1">
          <mxGeometry y="20" relative="1" as="geometry">
            <mxPoint as="offset" />
            <mxPoint x="650" y="122" as="sourcePoint" />
            <mxPoint x="560" y="135" as="targetPoint" />
            <Array as="points">
              <mxPoint x="630" y="70" />
              <mxPoint x="630" y="70" />
            </Array>
          </mxGeometry>
        </mxCell>
        <mxCell id="7xggXMTKVj6Pkvd-sYPO-4" value="Avaliar Solicitação" style="rounded=1;whiteSpace=wrap;html=1;fontSize=12;glass=0;strokeWidth=1;shadow=0;" parent="bMtikVbpiOWkGDIeM4f5-21" vertex="1">
          <mxGeometry x="340" y="17.5" width="120" height="40" as="geometry" />
        </mxCell>
        <mxCell id="7xggXMTKVj6Pkvd-sYPO-6" value="" style="ellipse;whiteSpace=wrap;html=1;aspect=fixed;gradientColor=none;fillColor=#FFFFFF;" parent="bMtikVbpiOWkGDIeM4f5-21" vertex="1">
          <mxGeometry x="240" y="90" width="20" height="20" as="geometry" />
        </mxCell>
        <mxCell id="7xggXMTKVj6Pkvd-sYPO-5" value="" style="rounded=0;html=1;jettySize=auto;orthogonalLoop=1;fontSize=11;endArrow=block;endFill=0;endSize=8;strokeWidth=1;shadow=0;labelBackgroundColor=none;edgeStyle=orthogonalEdgeStyle;exitX=0;exitY=0.5;exitDx=0;exitDy=0;entryX=0.5;entryY=0;entryDx=0;entryDy=0;" parent="bMtikVbpiOWkGDIeM4f5-21" source="7xggXMTKVj6Pkvd-sYPO-4" target="7xggXMTKVj6Pkvd-sYPO-6" edge="1">
          <mxGeometry y="20" relative="1" as="geometry">
            <mxPoint as="offset" />
            <mxPoint x="380" y="20" as="sourcePoint" />
            <mxPoint x="330" y="30" as="targetPoint" />
            <Array as="points">
              <mxPoint x="250" y="38" />
            </Array>
          </mxGeometry>
        </mxCell>
        <mxCell id="_TeAZVNQX-OvgpN_DuKz-4" value="" style="ellipse;whiteSpace=wrap;html=1;aspect=fixed;fillColor=#000000;" vertex="1" parent="bMtikVbpiOWkGDIeM4f5-21">
          <mxGeometry x="242" y="92" width="16" height="16" as="geometry" />
        </mxCell>
        <mxCell id="_TeAZVNQX-OvgpN_DuKz-6" value="" style="rounded=0;html=1;jettySize=auto;orthogonalLoop=1;fontSize=11;endArrow=block;endFill=0;endSize=8;strokeWidth=1;shadow=0;labelBackgroundColor=none;edgeStyle=orthogonalEdgeStyle;entryX=0.5;entryY=1;entryDx=0;entryDy=0;exitX=0;exitY=0.5;exitDx=0;exitDy=0;" edge="1" parent="bMtikVbpiOWkGDIeM4f5-21" source="bMtikVbpiOWkGDIeM4f5-25" target="7xggXMTKVj6Pkvd-sYPO-6">
          <mxGeometry y="20" relative="1" as="geometry">
            <mxPoint as="offset" />
            <mxPoint x="334" y="107" as="sourcePoint" />
            <mxPoint x="320" y="80" as="targetPoint" />
            <Array as="points">
              <mxPoint x="250" y="155" />
            </Array>
          </mxGeometry>
        </mxCell>
        <mxCell id="_TeAZVNQX-OvgpN_DuKz-15" value="" style="rounded=0;html=1;jettySize=auto;orthogonalLoop=1;fontSize=11;endArrow=block;endFill=0;endSize=8;strokeWidth=1;shadow=0;labelBackgroundColor=none;edgeStyle=orthogonalEdgeStyle;exitX=0;exitY=0.5;exitDx=0;exitDy=0;entryX=1;entryY=0.5;entryDx=0;entryDy=0;" edge="1" parent="bMtikVbpiOWkGDIeM4f5-21" source="bMtikVbpiOWkGDIeM4f5-29" target="7xggXMTKVj6Pkvd-sYPO-6">
          <mxGeometry y="20" relative="1" as="geometry">
            <mxPoint as="offset" />
            <mxPoint x="480" y="90" as="sourcePoint" />
            <mxPoint x="290" y="110" as="targetPoint" />
            <Array as="points">
              <mxPoint x="340" y="100" />
            </Array>
          </mxGeometry>
        </mxCell>
        <mxCell id="bMtikVbpiOWkGDIeM4f5-30" value="" style="edgeStyle=orthogonalEdgeStyle;rounded=0;html=1;jettySize=auto;orthogonalLoop=1;fontSize=11;endArrow=block;endFill=0;endSize=8;strokeWidth=1;shadow=0;labelBackgroundColor=none;exitX=1;exitY=0.5;exitDx=0;exitDy=0;entryX=0.579;entryY=0.004;entryDx=0;entryDy=0;entryPerimeter=0;" parent="1" source="bMtikVbpiOWkGDIeM4f5-16" target="bMtikVbpiOWkGDIeM4f5-22" edge="1">
          <mxGeometry x="0.2152" y="10" relative="1" as="geometry">
            <mxPoint as="offset" />
            <mxPoint x="730" y="194.74" as="sourcePoint" />
            <mxPoint x="800" y="570" as="targetPoint" />
            <Array as="points">
              <mxPoint x="719" y="190" />
              <mxPoint x="719" y="310" />
              <mxPoint x="749" y="310" />
            </Array>
          </mxGeometry>
        </mxCell>
        <mxCell id="bMtikVbpiOWkGDIeM4f5-32" value="Vendedor" style="swimlane;horizontal=0;whiteSpace=wrap;html=1;" parent="1" vertex="1">
          <mxGeometry y="320" width="1050" height="200" as="geometry" />
        </mxCell>
        <mxCell id="bMtikVbpiOWkGDIeM4f5-33" value="Cadastrar CPF e PIX" style="rounded=1;whiteSpace=wrap;html=1;fontSize=12;glass=0;strokeWidth=1;shadow=0;" parent="bMtikVbpiOWkGDIeM4f5-32" vertex="1">
          <mxGeometry x="220" y="80" width="120" height="40" as="geometry" />
        </mxCell>
        <mxCell id="bMtikVbpiOWkGDIeM4f5-34" value="Anunciar post de serviço" style="rounded=1;whiteSpace=wrap;html=1;fontSize=12;glass=0;strokeWidth=1;shadow=0;" parent="bMtikVbpiOWkGDIeM4f5-32" vertex="1">
          <mxGeometry x="554" y="110" width="120" height="40" as="geometry" />
        </mxCell>
        <mxCell id="bMtikVbpiOWkGDIeM4f5-36" value="" style="rounded=0;html=1;jettySize=auto;orthogonalLoop=1;fontSize=11;endArrow=block;endFill=0;endSize=8;strokeWidth=1;shadow=0;labelBackgroundColor=none;edgeStyle=orthogonalEdgeStyle;exitX=1;exitY=0.5;exitDx=0;exitDy=0;" parent="bMtikVbpiOWkGDIeM4f5-32" source="bMtikVbpiOWkGDIeM4f5-33" edge="1">
          <mxGeometry y="20" relative="1" as="geometry">
            <mxPoint as="offset" />
            <mxPoint x="434" y="119.97000000000003" as="sourcePoint" />
            <mxPoint x="400" y="100" as="targetPoint" />
            <Array as="points">
              <mxPoint x="350" y="100" />
              <mxPoint x="350" y="100" />
            </Array>
          </mxGeometry>
        </mxCell>
        <mxCell id="bMtikVbpiOWkGDIeM4f5-38" value="Fazer proposta" style="rounded=1;whiteSpace=wrap;html=1;fontSize=12;glass=0;strokeWidth=1;shadow=0;" parent="bMtikVbpiOWkGDIeM4f5-32" vertex="1">
          <mxGeometry x="780" y="50" width="120" height="40" as="geometry" />
        </mxCell>
        <mxCell id="bMtikVbpiOWkGDIeM4f5-50" value="Sim" style="text;html=1;align=center;verticalAlign=middle;resizable=0;points=[];autosize=1;strokeColor=none;fillColor=none;" parent="bMtikVbpiOWkGDIeM4f5-32" vertex="1">
          <mxGeometry x="320" y="20" width="40" height="30" as="geometry" />
        </mxCell>
        <mxCell id="7xggXMTKVj6Pkvd-sYPO-1" value="Enviar Solicitação" style="rounded=1;whiteSpace=wrap;html=1;fontSize=12;glass=0;strokeWidth=1;shadow=0;" parent="bMtikVbpiOWkGDIeM4f5-32" vertex="1">
          <mxGeometry x="400" y="80" width="120" height="40" as="geometry" />
        </mxCell>
        <mxCell id="7xggXMTKVj6Pkvd-sYPO-14" value="Preparar produto digital" style="rounded=1;whiteSpace=wrap;html=1;fontSize=12;glass=0;strokeWidth=1;shadow=0;" parent="bMtikVbpiOWkGDIeM4f5-32" vertex="1">
          <mxGeometry x="780" y="140" width="120" height="40" as="geometry" />
        </mxCell>
        <mxCell id="7xggXMTKVj6Pkvd-sYPO-15" value="Entregar produto ao cliente" style="rounded=1;whiteSpace=wrap;html=1;fontSize=12;glass=0;strokeWidth=1;shadow=0;" parent="bMtikVbpiOWkGDIeM4f5-32" vertex="1">
          <mxGeometry x="920" y="60" width="120" height="40" as="geometry" />
        </mxCell>
        <mxCell id="7xggXMTKVj6Pkvd-sYPO-16" value="" style="edgeStyle=orthogonalEdgeStyle;rounded=0;html=1;jettySize=auto;orthogonalLoop=1;fontSize=11;endArrow=block;endFill=0;endSize=8;strokeWidth=1;shadow=0;labelBackgroundColor=none;" parent="bMtikVbpiOWkGDIeM4f5-32" source="bMtikVbpiOWkGDIeM4f5-38" target="7xggXMTKVj6Pkvd-sYPO-14" edge="1">
          <mxGeometry x="0.2152" y="10" relative="1" as="geometry">
            <mxPoint as="offset" />
            <mxPoint x="840" y="90" as="sourcePoint" />
            <mxPoint x="880" y="160" as="targetPoint" />
            <Array as="points">
              <mxPoint x="840" y="110" />
              <mxPoint x="840" y="110" />
            </Array>
          </mxGeometry>
        </mxCell>
        <mxCell id="7xggXMTKVj6Pkvd-sYPO-18" value="" style="edgeStyle=orthogonalEdgeStyle;rounded=0;html=1;jettySize=auto;orthogonalLoop=1;fontSize=11;endArrow=block;endFill=0;endSize=8;strokeWidth=1;shadow=0;labelBackgroundColor=none;exitX=1;exitY=0.5;exitDx=0;exitDy=0;" parent="bMtikVbpiOWkGDIeM4f5-32" source="7xggXMTKVj6Pkvd-sYPO-14" target="7xggXMTKVj6Pkvd-sYPO-15" edge="1">
          <mxGeometry x="0.2152" y="10" relative="1" as="geometry">
            <mxPoint as="offset" />
            <mxPoint x="920" y="150" as="sourcePoint" />
            <mxPoint x="920" y="200" as="targetPoint" />
            <Array as="points">
              <mxPoint x="970" y="160" />
            </Array>
          </mxGeometry>
        </mxCell>
        <mxCell id="7xggXMTKVj6Pkvd-sYPO-20" value="" style="ellipse;whiteSpace=wrap;html=1;aspect=fixed;gradientColor=none;fillColor=#FFFFFF;" parent="bMtikVbpiOWkGDIeM4f5-32" vertex="1">
          <mxGeometry x="990" y="20" width="20" height="20" as="geometry" />
        </mxCell>
        <mxCell id="7xggXMTKVj6Pkvd-sYPO-19" value="" style="edgeStyle=orthogonalEdgeStyle;rounded=0;html=1;jettySize=auto;orthogonalLoop=1;fontSize=11;endArrow=block;endFill=0;endSize=8;strokeWidth=1;shadow=0;labelBackgroundColor=none;exitX=0.5;exitY=0;exitDx=0;exitDy=0;entryX=-0.12;entryY=0.47;entryDx=0;entryDy=0;entryPerimeter=0;" parent="bMtikVbpiOWkGDIeM4f5-32" source="7xggXMTKVj6Pkvd-sYPO-15" target="7xggXMTKVj6Pkvd-sYPO-20" edge="1">
          <mxGeometry x="0.2152" y="10" relative="1" as="geometry">
            <mxPoint as="offset" />
            <mxPoint x="970" y="40" as="sourcePoint" />
            <mxPoint x="970" y="20" as="targetPoint" />
            <Array as="points">
              <mxPoint x="970" y="60" />
              <mxPoint x="970" y="29" />
            </Array>
          </mxGeometry>
        </mxCell>
        <mxCell id="_TeAZVNQX-OvgpN_DuKz-3" value="" style="ellipse;whiteSpace=wrap;html=1;aspect=fixed;fillColor=#000000;" vertex="1" parent="bMtikVbpiOWkGDIeM4f5-32">
          <mxGeometry x="992" y="22" width="16" height="16" as="geometry" />
        </mxCell>
        <mxCell id="bMtikVbpiOWkGDIeM4f5-39" value="" style="rounded=0;html=1;jettySize=auto;orthogonalLoop=1;fontSize=11;endArrow=block;endFill=0;endSize=8;strokeWidth=1;shadow=0;labelBackgroundColor=none;edgeStyle=orthogonalEdgeStyle;entryX=0;entryY=0.5;entryDx=0;entryDy=0;exitX=0.5;exitY=1;exitDx=0;exitDy=0;" parent="1" source="bMtikVbpiOWkGDIeM4f5-10" target="bMtikVbpiOWkGDIeM4f5-33" edge="1">
          <mxGeometry y="20" relative="1" as="geometry">
            <mxPoint as="offset" />
            <mxPoint x="369.8" y="340" as="sourcePoint" />
            <mxPoint x="370" y="410" as="targetPoint" />
            <Array as="points">
              <mxPoint x="370" y="340" />
              <mxPoint x="180" y="340" />
              <mxPoint x="180" y="420" />
            </Array>
          </mxGeometry>
        </mxCell>
        <mxCell id="bMtikVbpiOWkGDIeM4f5-41" value="" style="edgeStyle=orthogonalEdgeStyle;rounded=0;html=1;jettySize=auto;orthogonalLoop=1;fontSize=11;endArrow=block;endFill=0;endSize=8;strokeWidth=1;shadow=0;labelBackgroundColor=none;exitX=0.5;exitY=0;exitDx=0;exitDy=0;" parent="1" source="bMtikVbpiOWkGDIeM4f5-34" target="bMtikVbpiOWkGDIeM4f5-13" edge="1">
          <mxGeometry x="0.2152" y="10" relative="1" as="geometry">
            <mxPoint as="offset" />
            <mxPoint x="450" y="370" as="sourcePoint" />
            <mxPoint x="550" y="320" as="targetPoint" />
            <Array as="points">
              <mxPoint x="620" y="430" />
              <mxPoint x="620" y="360" />
              <mxPoint x="540" y="360" />
            </Array>
          </mxGeometry>
        </mxCell>
        <mxCell id="bMtikVbpiOWkGDIeM4f5-46" value="Sim" style="text;html=1;align=center;verticalAlign=middle;resizable=0;points=[];autosize=1;strokeColor=none;fillColor=none;" parent="1" vertex="1">
          <mxGeometry x="170" y="198" width="40" height="30" as="geometry" />
        </mxCell>
        <mxCell id="bMtikVbpiOWkGDIeM4f5-58" value="" style="rounded=0;html=1;jettySize=auto;orthogonalLoop=1;fontSize=11;endArrow=block;endFill=0;endSize=8;strokeWidth=1;shadow=0;labelBackgroundColor=none;edgeStyle=orthogonalEdgeStyle;exitX=1;exitY=0.5;exitDx=0;exitDy=0;" parent="1" source="bMtikVbpiOWkGDIeM4f5-56" edge="1">
          <mxGeometry x="0.3333" y="50" relative="1" as="geometry">
            <mxPoint as="offset" />
            <mxPoint x="250" y="140" as="sourcePoint" />
            <mxPoint x="220" y="125" as="targetPoint" />
          </mxGeometry>
        </mxCell>
        <mxCell id="7xggXMTKVj6Pkvd-sYPO-3" value="" style="rounded=0;html=1;jettySize=auto;orthogonalLoop=1;fontSize=11;endArrow=block;endFill=0;endSize=8;strokeWidth=1;shadow=0;labelBackgroundColor=none;edgeStyle=orthogonalEdgeStyle;exitX=0.5;exitY=1;exitDx=0;exitDy=0;" parent="1" source="7xggXMTKVj6Pkvd-sYPO-1" target="7xggXMTKVj6Pkvd-sYPO-4" edge="1">
          <mxGeometry y="20" relative="1" as="geometry">
            <mxPoint as="offset" />
            <mxPoint x="460" y="500" as="sourcePoint" />
            <mxPoint x="460" y="540" as="targetPoint" />
            <Array as="points" />
          </mxGeometry>
        </mxCell>
        <mxCell id="7xggXMTKVj6Pkvd-sYPO-13" value="" style="edgeStyle=orthogonalEdgeStyle;rounded=0;html=1;jettySize=auto;orthogonalLoop=1;fontSize=11;endArrow=block;endFill=0;endSize=8;strokeWidth=1;shadow=0;labelBackgroundColor=none;exitX=0.5;exitY=1;exitDx=0;exitDy=0;" parent="1" source="bMtikVbpiOWkGDIeM4f5-15" target="bMtikVbpiOWkGDIeM4f5-38" edge="1">
          <mxGeometry x="0.2152" y="10" relative="1" as="geometry">
            <mxPoint as="offset" />
            <mxPoint x="850" y="405" as="sourcePoint" />
            <mxPoint x="840" y="330" as="targetPoint" />
            <Array as="points">
              <mxPoint x="800" y="340" />
              <mxPoint x="840" y="340" />
            </Array>
          </mxGeometry>
        </mxCell>
      </root>
    </mxGraphModel>
  </diagram>
</mxfile>
